<svg class="svg-icon" style="width: 1em; height: 1em;vertical-align: middle;fill: currentColor;overflow: hidden;" viewBox="0 0 1024 1024" version="1.1" xmlns="http://www.w3.org/2000/svg"><path d="M743.52 396.192l-37.504-6.4-12.288-35.968a192.096 192.096 0 0 0-363.456 0l-12.288 35.968-37.504 6.4A106.72 106.72 0 0 0 298.656 608h426.688a106.656 106.656 0 0 0 18.176-211.808zM896 501.344A170.656 170.656 0 0 1 725.344 672H298.656a170.656 170.656 0 0 1-28.928-338.88 256.096 256.096 0 0 1 484.544 0A170.72 170.72 0 0 1 896 501.344z" fill="#4A90E2" /><path d="M432 800a32 32 0 0 1-28.608-46.304l64-128a32 32 0 0 1 57.216 28.608L483.776 736H592a32 32 0 0 1 28.608 46.304l-64 128a32 32 0 0 1-57.216-28.608L540.224 800H432z" fill="#4A90E2" /></svg>